<?xml version="1.0" encoding="UTF-8"?>
<svg width="90px" height="68px" viewBox="0 0 90 68" version="1.1" xmlns="http://www.w3.org/2000/svg" xmlns:xlink="http://www.w3.org/1999/xlink">
    <!-- Generator: Sketch 46.1 (44463) - http://www.bohemiancoding.com/sketch -->
    <title>noun_1051615</title>
    <desc>Created with Sketch.</desc>
    <defs></defs>
    <g id="Page-1" stroke="none" stroke-width="1" fill="none" fill-rule="evenodd">
        <g id="Twitch-Streamer-Site---Desktop" transform="translate(-127.000000, -53.000000)" fill-rule="nonzero" fill="#00E176">
            <g id="noun_1051615" transform="translate(127.000000, 53.000000)">
                <path d="M86.1,31 C82.4,23.6 76.6,18.4 70.3,16.7 C66,15.6 62,16.2 58.5,18.4 L58.3,18.5 C54.6,19.8 50.8,20.4 47,20.6 L47,16.5 C47,14.4 47.5,9.4 52,9.4 C56.7,9.4 59,6.9 59,1.9 L59,0.9 L57,0.9 L57,1.9 C57,5.9 55.6,7.4 52,7.4 C47.7,7.4 45,10.9 45,16.5 L45,20.6 C40.6,20.5 36.2,19.6 32.1,18 C28.6,15.7 24.4,15.1 20.1,16.2 C13.7,17.9 7.7,23.3 4,30.8 C-2.5,43.7 -0.5,59 8.4,64.9 C10.8,66.5 13.5,67.3 16.3,67.3 C17.6,67.3 19,67.1 20.4,66.8 C26.8,65.1 32.6,59.9 36.4,52.6 C41.9,50.2 48.2,50.1 53.8,52.3 L54.2,52.4 C57.9,59.6 63.7,64.7 69.9,66.3 C74.2,67.4 78.3,66.8 81.7,64.5 C90.5,58.6 92.4,43.6 86.1,31 Z M80.6,62.8 C77.6,64.8 74.1,65.3 70.4,64.3 C64.8,62.8 59.4,58 55.9,51.4 C55.7,51 55.3,50.6 54.9,50.5 L54.5,50.4 C48.4,48 41.6,48.1 35.6,50.8 C35.2,51 34.8,51.3 34.6,51.7 C31.1,58.5 25.6,63.4 19.9,64.9 C16.1,65.9 12.5,65.3 9.5,63.3 C1.4,57.9 -0.3,43.8 5.7,31.7 C9.2,24.8 14.7,19.7 20.5,18.2 C21.7,17.9 23,17.7 24.2,17.7 C26.6,17.7 29,18.4 31,19.8 L31.2,19.9 C40.1,23.4 49.9,23.6 58.9,20.5 L59.2,20.4 L59.4,20.3 C62.4,18.3 66,17.8 69.7,18.8 C75.4,20.3 80.8,25.3 84.2,32 C90.2,43.6 88.5,57.5 80.6,62.8 Z" id="Shape"></path>
                <path d="M68,30.8 C63.6,30.8 60,34.4 60,38.8 C60,43.2 63.6,46.8 68,46.8 C72.4,46.8 76,43.2 76,38.8 C76,34.4 72.4,30.8 68,30.8 Z M68,44.8 C64.7,44.8 62,42.1 62,38.8 C62,35.5 64.7,32.8 68,32.8 C71.3,32.8 74,35.5 74,38.8 C74,42.1 71.3,44.8 68,44.8 Z" id="Shape"></path>
                <polygon id="Shape" points="22 32 20 32 20 38 14 38 14 40 20 40 20 46 22 46 22 40 28 40 28 38 22 38"></polygon>
            </g>
        </g>
    </g>
</svg>